#!OML:ASF F:\VICON\USERDATA\INSTALL\rory3\rory3.ASF
:FULLY-SPECIFIED
:DEGREES
419
root -0.509257 25.3254 0.980637 -168.877 -2.88658 -180.606
lowerback 7.32986 2.10627 -4.03316
upperback 0.554798 2.43508 0.193694
thorax -3.71359 1.25557 2.20917
lowerneck -18.2043 1.59333 -9.29711
upperneck 35.8346 2.13047 2.13346
head 15.5415 -1.01628 2.66803
rclavicle 9.93923e-017 6.06293e-015
rhumerus -28.1972 -2.24281 -80.9656
rradius 49.6293
rwrist 14.0885
rhand -19.2793 5.13026
rfingers 7.12502
rthumb 7.03555 -24.7328
lclavicle 9.93923e-017 6.06293e-015
lhumerus -32.0635 9.65008 81.0559
lradius 35.4102
lwrist -4.86542
lhand -12.4057 25.8756
lfingers 7.12502
lthumb 13.666 55.4069
rfemur -0.889489 2.12842 27.4543
rtibia 6.89695
rfoot -10.0788 -2.75598
rtoes 15.1004
lfemur -66.9217 2.86615 -29.5606
ltibia 84.4495
lfoot -22.5264 -4.71373
ltoes -4.22903
420
root -0.505479 25.3492 0.928178 -168.579 -2.78565 -180.674
lowerback 7.36171 2.11538 -4.26641
upperback 0.554847 2.42029 0.0917468
thorax -3.73589 1.25056 2.23479
lowerneck -18.3353 1.58175 -9.17945
upperneck 35.7022 2.15697 2.0609
head 15.5096 -0.978792 2.62432
rclavicle -4.11236e-015 1.09332e-015
rhumerus -28.2093 -2.11214 -81.1946
rradius 49.7087
rwrist 13.8892
rhand -20.0502 6.38938
rfingers 7.12502
rthumb 6.29137 -23.4972
lclavicle -4.11236e-015 1.09332e-015
lhumerus -31.8323 9.70169 80.9449
lradius 35.0863
lwrist -4.96843
lhand -12.4553 25.7023
lfingers 7.12502
lthumb 13.6182 55.2369
rfemur -1.17542 2.21865 27.3593
rtibia 7.11155
rfoot -9.73511 -2.78269
rtoes 15.2766
lfemur -66.9018 2.8674 -29.5222
ltibia 84.2736
lfoot -22.7482 -4.82829
ltoes -4.4964
421
root -0.502096 25.3756 0.876347 -168.168 -2.62565 -180.848
lowerback 7.24086 2.14052 -4.63055
upperback 0.567322 2.42219 -0.0499047
thorax -3.66478 1.25344 2.29595
lowerneck -18.6485 1.52843 -9.08528
upperneck 35.6714 2.10625 2.11275
head 15.5723 -0.963451 2.62909
rclavicle 1.87261e-014 -1.73812e-014
rhumerus -28.1005 -2.05824 -81.4104
rradius 49.7417
rwrist 13.8369
rhand -19.6741 6.2438
rfingers 7.12502
rthumb 6.65442 -23.6316
lclavicle 1.87261e-014 -1.73812e-014
lhumerus -31.5797 9.80065 80.8265
lradius 34.8153
lwrist -5.04496
lhand -12.5042 25.3945
lfingers 7.12502
lthumb 13.5711 54.9322
rfemur -1.58733 2.35537 27.1256
rtibia 7.32809
rfoot -9.39245 -2.82639
rtoes 15.1553
lfemur -66.9097 2.82505 -29.5559
ltibia 83.9758
lfoot -22.9573 -5.09974
ltoes -3.97108
422
root -0.497469 25.4079 0.822835 -167.799 -2.37521 -180.929
lowerback 7.15101 2.2104 -4.98213
upperback 0.5479 2.48467 -0.169028
thorax -3.64953 1.28811 2.36495
lowerneck -18.7365 1.4831 -9.03796
upperneck 35.5089 2.02013 2.2708
head 15.5163 -0.945393 2.67599
rclavicle -7.64079e-015 6.58474e-015
rhumerus -27.9929 -1.94299 -81.587
rradius 49.6672
rwrist 13.8233
rhand -18.7234 5.41488
rfingers 7.12502
rthumb 7.57212 -24.4296
lclavicle -7.64079e-015 6.58474e-015
lhumerus -31.4202 9.74856 80.733
lradius 34.6015
lwrist -5.05678
lhand -12.4063 25.358
lfingers 7.12502
lthumb 13.6654 54.8894
rfemur -2.08787 2.59425 26.9827
rtibia 7.82671
rfoot -9.14045 -2.84374
rtoes 14.694
lfemur -66.84 2.91106 -29.4966
ltibia 83.6067
lfoot -23.1773 -5.43147
ltoes -3.30356
423
root -0.493326 25.4441 0.765772 -167.587 -2.15764 -180.936
lowerback 7.1647 2.27035 -5.27192
upperback 0.579032 2.53474 -0.230689
thorax -3.63908 1.31435 2.45783
lowerneck -18.8413 1.4545 -9.17186
upperneck 35.4137 1.94911 2.60946
head 15.489 -0.92676 2.83472
rclavicle -4.22417e-015 9.98893e-015
rhumerus -27.9007 -1.82865 -81.7292
rradius 49.7196
rwrist 14.4034
rhand -18.9589 5.05773
rfingers 7.12502
rthumb 7.34483 -24.7948
lclavicle -4.22417e-015 9.98893e-015
lhumerus -31.184 9.88225 80.6717
lradius 34.2601
lwrist -5.21544
lhand -12.4187 25.3068
lfingers 7.12502
lthumb 13.6535 54.839
rfemur -2.59387 2.7957 26.9117
rtibia 8.70639
rfoot -8.95246 -2.79348
rtoes 15.0137
lfemur -66.5311 3.02886 -29.3556
ltibia 83.1798
lfoot -23.5854 -5.57157
ltoes -3.25957
424
root -0.490436 25.4708 0.708105 -167.381 -1.97698 -180.969
lowerback 7.12637 2.31387 -5.5484
upperback 0.660293 2.5667 -0.302256
thorax -3.54507 1.32744 2.53795
lowerneck -19.0975 1.41534 -9.2312
upperneck 35.3731 1.91576 2.79049
head 15.5271 -0.907211 2.92324
rclavicle 3.6303e-014 2.08724e-015
rhumerus -27.8246 -1.77009 -81.8702
rradius 49.8944
rwrist 15.492
rhand -18.9066 3.94462
rfingers 7.12502
rthumb 7.39527 -25.9061
lclavicle 3.6303e-014 2.08724e-015
lhumerus -30.9212 9.8534 80.6801
lradius 34.1082
lwrist -5.19588
lhand -12.4248 25.717
lfingers 7.12502
lthumb 13.6476 55.2496
rfemur -3.09211 2.95451 26.8237
rtibia 9.59426
rfoot -8.68075 -2.85681
rtoes 14.6848
lfemur -66.0894 3.11 -29.2605
ltibia 82.7144
lfoot -24.1269 -5.55066
ltoes -3.84233
425
root -0.489479 25.4888 0.650797 -167.182 -1.83003 -180.982
lowerback 7.11216 2.34591 -5.75295
upperback 0.702576 2.58512 -0.419484
thorax -3.49873 1.33408 2.53018
lowerneck -19.1801 1.39654 -9.04769
upperneck 35.2206 1.89788 2.71624
head 15.478 -0.879376 2.85773
rclavicle -2.41523e-014 1.37161e-014
rhumerus -27.7916 -1.66859 -82.0644
rradius 49.7833
rwrist 16.3349
rhand -18.2871 2.62445
rfingers 7.12502
rthumb 7.99329 -27.2044
lclavicle -2.41523e-014 1.37161e-014
lhumerus -30.712 9.73091 80.5961
lradius 33.9547
lwrist -5.19837
lhand -12.3846 26.1183
lfingers 7.12502
lthumb 13.6863 55.6483
rfemur -3.57613 3.0835 26.7599
rtibia 10.4493
rfoot -8.34362 -2.90877
rtoes 14.4268
lfemur -65.5649 3.17329 -29.1761
ltibia 82.2287
lfoot -24.6845 -5.36894
ltoes -4.7655
426
root -0.487918 25.522 0.594231 -166.902 -1.6935 -181.017
lowerback 7.08015 2.38121 -5.97744
upperback 0.674263 2.60725 -0.545655
thorax -3.51679 1.34672 2.52271
lowerneck -19.1496 1.35182 -8.85462
upperneck 35.0601 1.83556 2.57229
head 15.4044 -0.882938 2.75012
rclavicle 5.81942e-014 -2.3059e-014
rhumerus -27.7938 -1.61641 -82.2386
rradius 49.5175
rwrist 16.5949
rhand -17.9541 2.30671
rfingers 7.12502
rthumb 8.31462 -27.5097
lclavicle 5.81942e-014 -2.3059e-014
lhumerus -30.4859 9.63296 80.5092
lradius 33.6171
lwrist -5.29481
lhand -12.5293 26.1579
lfingers 7.12502
lthumb 13.5469 55.6972
rfemur -4.17065 3.13567 26.6364
rtibia 11.3085
rfoot -7.87089 -2.81996
rtoes 14.1283
lfemur -65.2013 3.24829 -29.18
ltibia 81.7143
lfoot -25.1189 -5.22755
ltoes -5.18795
427
root -0.483537 25.5684 0.537334 -166.612 -1.61029 -181.015
lowerback 7.03726 2.39054 -6.21706
upperback 0.647639 2.59706 -0.627639
thorax -3.52686 1.34409 2.57342
lowerneck -19.2853 1.31739 -8.86408
upperneck 35.0781 1.76212 2.71231
head 15.4468 -0.890781 2.80212
rclavicle -6.4605e-016 -4.19436e-014
rhumerus -27.7681 -1.52482 -82.4069
rradius 49.2865
rwrist 16.6187
rhand -17.9511 2.32841
rfingers 7.12502
rthumb 8.31748 -27.4878
lclavicle -6.4605e-016 -4.19436e-014
lhumerus -30.2912 9.66127 80.3982
lradius 33.3391
lwrist -5.45827
lhand -12.42 26.0123
lfingers 7.12502
lthumb 13.6522 55.5445
rfemur -4.64983 3.18664 26.5566
rtibia 11.864
rfoot -7.10472 -2.87206
rtoes 13.4807
lfemur -64.9039 3.29444 -29.1389
ltibia 81.1631
lfoot -25.3757 -5.26571
ltoes -4.52546
428
root -0.480296 25.6217 0.476842 -166.358 -1.56158 -180.991
lowerback 6.98929 2.36423 -6.43785
upperback 0.593918 2.54261 -0.690771
thorax -3.55808 1.32126 2.63748
lowerneck -19.3087 1.3461 -8.84523
upperneck 35.0649 1.74898 2.86571
head 15.4423 -0.868392 2.86285
rclavicle -2.72335e-014 2.82274e-014
rhumerus -27.7703 -1.29634 -82.5907
rradius 48.9408
rwrist 16.6473
rhand -18.0583 2.32977
rfingers 7.12502
rthumb 8.21403 -27.4906
lclavicle -2.72335e-014 2.82274e-014
lhumerus -30.2885 9.77555 80.2411
lradius 33.203
lwrist -5.59596
lhand -12.2043 26.1733
lfingers 7.12502
lthumb 13.8601 55.6915
rfemur -4.8849 3.18777 26.4999
rtibia 11.983
rfoot -6.07394 -3.06826
rtoes 13.0746
lfemur -64.504 3.3298 -29.0732
ltibia 80.5757
lfoot -25.5674 -5.41086
ltoes -3.1264
429
root -0.479311 25.6836 0.414728 -166.221 -1.57287 -181.005
lowerback 7.05613 2.33292 -6.63507
upperback 0.597683 2.47209 -0.765859
thorax -3.59047 1.28711 2.675
lowerneck -19.4279 1.35224 -8.68938
upperneck 34.9858 1.76571 2.80387
head 15.4337 -0.836443 2.81466
rclavicle 1.5704e-014 1.39149e-015
rhumerus -27.6761 -1.16865 -82.7692
rradius 48.4992
rwrist 16.6927
rhand -18.1046 2.36464
rfingers 7.12502
rthumb 8.16937 -27.4574
lclavicle 1.5704e-014 1.39149e-015
lhumerus -30.1893 9.77051 80.1538
lradius 33.0463
lwrist -5.72362
lhand -12.161 26.4382
lfingers 7.12502
lthumb 13.9018 55.9535
rfemur -4.8755 3.15262 26.3939
rtibia 11.8558
rfoot -4.97717 -3.29678
rtoes 13.3484
lfemur -63.9602 3.32598 -29.04
ltibia 79.9524
lfoot -25.6822 -5.6182
ltoes -1.5
430
root -0.479324 25.7474 0.3552 -166.021 -1.65063 -180.869
lowerback 7.11532 2.29486 -6.61747
upperback 0.546398 2.41315 -0.822303
thorax -3.66831 1.26019 2.60982
lowerneck -19.5148 1.30505 -8.63329
upperneck 34.9533 1.66657 2.89028
head 15.4446 -0.850622 2.82617
rclavicle 1.799e-014 -4.05521e-014
rhumerus -27.7172 -1.08191 -82.9424
rradius 48.1203
rwrist 16.795
rhand -18.2603 2.33445
rfingers 7.12502
rthumb 8.01912 -27.4934
lclavicle 1.799e-014 -4.05521e-014
lhumerus -30.1285 9.51223 80.1029
lradius 32.9413
lwrist -5.68694
lhand -12.2416 26.7546
lfingers 7.12502
lthumb 13.8241 56.2752
rfemur -4.9098 3.07674 26.4533
rtibia 11.6339
rfoot -3.78151 -3.49905
rtoes 12.3948
lfemur -63.5672 3.26631 -28.8324
ltibia 79.3246
lfoot -25.7709 -5.43776
ltoes -2.09375
431
root -0.479582 25.8101 0.294454 -165.744 -1.63542 -180.662
lowerback 7.0119 2.29219 -6.54007
upperback 0.485006 2.4214 -0.878255
thorax -3.66933 1.26486 2.50975
lowerneck -19.6258 1.26978 -8.58533
upperneck 35.0396 1.54696 3.03613
head 15.5184 -0.877188 2.86247
rclavicle 6.95746e-015 -2.3059e-014
rhumerus -27.7392 -0.855759 -83.0922
rradius 47.7123
rwrist 16.8276
rhand -18.3892 2.2332
rfingers 7.12502
rthumb 7.89469 -27.5994
lclavicle 6.95746e-015 -2.3059e-014
lhumerus -30.1065 9.32442 80.0218
lradius 32.9226
lwrist -5.61554
lhand -12.2838 26.6154
lfingers 7.12502
lthumb 13.7835 56.1388
rfemur -5.02691 2.90303 26.5443
rtibia 11.3818
rfoot -2.3632 -3.64371
rtoes 11.2278
lfemur -63.2641 3.26957 -28.5502
ltibia 78.6733
lfoot -25.9031 -5.05068
ltoes -4.17061
432
root -0.48116 25.8782 0.229869 -165.555 -1.6401 -180.624
lowerback 6.90214 2.27327 -6.64585
upperback 0.493836 2.39121 -0.952705
thorax -3.59718 1.24739 2.49879
lowerneck -19.7874 1.28253 -8.50921
upperneck 35.1257 1.52084 3.12851
head 15.5982 -0.866896 2.88907
rclavicle -2.14687e-014 2.74323e-014
rhumerus -27.5125 -0.493828 -83.2418
rradius 47.0248
rwrist 16.6655
rhand -18.3623 2.22991
rfingers 7.12502
rthumb 7.92069 -27.6017
lclavicle -2.14687e-014 2.74323e-014
lhumerus -29.9805 9.32953 79.9398
lradius 32.8207
lwrist -5.66619
lhand -12.4261 26.3884
lfingers 7.12502
lthumb 13.6464 55.9211
rfemur -5.07792 2.63927 26.4287
rtibia 11.2004
rfoot -0.913729 -3.77353
rtoes 11.1918
lfemur -62.757 3.14204 -28.3808
ltibia 77.969
lfoot -25.8807 -5.0706
ltoes -4.35469
